<?xml version="1.0" standalone="no"?>
<!DOCTYPE svg PUBLIC "-//W3C//DTD SVG 20010904//EN"
 "http://www.w3.org/TR/2001/REC-SVG-20010904/DTD/svg10.dtd">
<svg version="1.0" xmlns="http://www.w3.org/2000/svg"
 width="1024.000000pt" height="1024.000000pt" viewBox="0 0 1024.000000 1024.000000"
 preserveAspectRatio="xMidYMid meet">

<g transform="translate(0.000000,1024.000000) scale(0.100000,-0.100000)"
fill="#d80032" stroke="none">
<path d="M3979 10056 c-3 -3 -44 -11 -90 -17 -185 -24 -407 -108 -564 -212
-71 -48 -89 -61 -125 -94 -19 -18 -38 -33 -42 -33 -13 0 -188 -202 -231 -268
-159 -240 -240 -478 -299 -867 -16 -112 -16 -844 0 -1010 6 -60 12 -182 14
-270 l2 -161 -38 -79 c-21 -44 -56 -118 -78 -165 -22 -47 -55 -118 -74 -158
-19 -40 -59 -123 -88 -185 -126 -265 -161 -338 -233 -486 -41 -86 -91 -190
-110 -231 -20 -41 -81 -167 -136 -280 -98 -201 -175 -362 -243 -508 -19 -40
-61 -128 -93 -195 -124 -259 -243 -510 -351 -742 -18 -38 -68 -142 -110 -230
-43 -88 -122 -253 -175 -365 -53 -113 -118 -248 -142 -300 -25 -52 -70 -146
-100 -209 -56 -119 -103 -248 -103 -285 0 -37 39 -128 67 -159 49 -51 169
-138 447 -320 10 -6 35 -24 55 -38 20 -14 173 -118 341 -231 287 -192 514
-346 710 -480 176 -121 284 -194 336 -228 30 -19 102 -68 161 -109 60 -40 194
-132 298 -202 105 -71 228 -155 275 -187 47 -32 126 -86 175 -120 157 -108
553 -377 692 -470 100 -67 151 -82 226 -68 82 15 188 114 488 451 52 58 172
189 239 260 26 28 67 73 91 101 24 28 118 131 208 228 l164 177 -25 27 c-13
15 -66 73 -117 129 -105 116 -105 110 -18 165 29 18 54 35 57 38 14 17 79 60
89 60 7 0 45 -22 84 -49 40 -27 119 -79 177 -116 94 -60 137 -89 297 -198 80
-54 150 -43 216 33 74 85 479 523 722 779 228 242 271 288 299 321 16 19 86
95 156 170 110 117 214 229 470 504 30 33 93 101 140 150 47 50 115 122 150
160 36 38 79 84 95 101 17 17 52 56 79 86 27 30 86 92 130 139 45 47 122 130
171 185 50 55 131 142 180 195 75 80 205 222 414 455 131 146 246 271 312 340
60 63 79 90 85 120 12 63 -16 100 -111 149 -187 98 -322 171 -357 192 -21 13
-40 24 -43 24 -3 0 -22 10 -43 23 -34 22 -104 60 -322 175 -47 25 -114 61
-150 82 -36 20 -94 51 -130 70 -36 18 -81 42 -100 53 -19 11 -73 40 -120 65
-157 83 -236 125 -345 187 -22 12 -84 46 -137 74 -54 28 -117 62 -140 75 -130
72 -288 155 -306 160 -16 5 -30 -5 -70 -51 -67 -77 -277 -332 -385 -466 l-87
-109 22 -16 c28 -20 44 -29 213 -122 33 -18 72 -41 87 -51 14 -11 28 -19 31
-19 5 0 44 -22 252 -140 157 -90 161 -92 360 -202 99 -55 185 -104 190 -108 6
-4 50 -29 100 -55 49 -26 113 -63 142 -81 28 -19 55 -34 58 -34 3 0 22 -11 43
-23 38 -24 96 -57 190 -108 28 -16 70 -40 92 -54 22 -14 41 -25 44 -25 2 0 64
-35 137 -78 74 -42 146 -83 162 -89 33 -15 34 -33 3 -62 -14 -13 -32 -39 -41
-57 -20 -42 -34 -42 -97 -3 -28 16 -84 49 -126 71 -43 23 -117 66 -165 95 -48
29 -90 53 -92 53 -3 0 -34 18 -70 40 -36 22 -70 40 -75 40 -6 0 -10 5 -10 10
0 6 -5 10 -11 10 -6 0 -37 15 -68 34 -31 18 -85 49 -121 69 -119 64 -213 117
-224 126 -6 5 -51 30 -101 57 -49 26 -114 62 -143 81 -29 18 -55 33 -58 33 -3
0 -69 37 -147 81 -78 45 -164 94 -192 109 -67 37 -92 51 -285 162 -91 52 -186
106 -212 121 l-46 26 -110 -116 c-61 -63 -115 -113 -120 -109 -5 3 -13 21 -16
39 -11 60 -125 147 -192 147 -39 0 -72 -40 -118 -143 -51 -117 -74 -149 -149
-207 -118 -91 -315 -279 -387 -370 -76 -96 -145 -211 -247 -416 -39 -77 -91
-172 -116 -210 -45 -68 -224 -251 -382 -389 -133 -117 -226 -208 -222 -219 3
-10 55 -42 148 -91 l46 -24 74 65 c189 168 264 238 389 364 l136 135 72 147
c40 80 72 148 72 150 0 14 125 234 166 293 27 39 103 122 168 185 228 218 364
358 371 379 8 27 45 29 45 1 0 -10 7 -45 15 -77 8 -32 18 -82 22 -110 3 -29 8
-53 11 -53 2 0 15 10 26 22 12 13 91 89 175 171 l154 147 31 -19 c17 -10 49
-29 71 -41 38 -21 150 -85 225 -128 19 -11 64 -37 100 -59 36 -22 90 -54 120
-70 30 -16 118 -66 194 -111 76 -45 140 -82 142 -82 2 0 33 -18 69 -40 36 -22
67 -40 69 -40 2 0 41 -21 87 -47 46 -26 96 -54 111 -63 15 -8 64 -37 108 -63
44 -26 100 -58 123 -71 97 -53 197 -113 277 -165 105 -68 121 -78 140 -87 24
-11 50 -36 50 -49 0 -6 -48 -63 -107 -126 -60 -64 -155 -167 -213 -229 -58
-63 -148 -160 -200 -215 -52 -56 -140 -151 -195 -211 -54 -60 -140 -152 -190
-204 -49 -52 -153 -163 -230 -245 -77 -83 -169 -181 -206 -220 -36 -38 -85
-92 -110 -120 -24 -27 -129 -139 -233 -250 -105 -110 -204 -216 -222 -235 -17
-19 -70 -75 -117 -125 -47 -49 -100 -109 -118 -132 -19 -23 -37 -42 -40 -42
-7 -1 -251 150 -274 169 -8 7 -15 18 -15 24 0 6 43 41 96 76 103 70 145 106
142 124 -3 15 10 163 22 251 5 39 16 138 25 220 8 83 20 180 27 217 6 36 8 84
6 106 l-6 40 57 24 c31 14 76 33 101 44 116 48 185 99 334 249 144 144 226
238 226 255 0 5 -24 20 -52 35 -57 28 -73 37 -129 73 -20 12 -41 22 -47 22 -6
0 -33 -22 -60 -49 l-50 -50 -108 -3 c-60 -2 -113 0 -118 4 -5 4 28 47 72 96
45 49 82 94 82 99 0 10 -32 34 -130 95 -105 66 -93 66 -162 1 -81 -77 -171
-191 -165 -208 3 -7 33 -28 66 -45 34 -18 61 -37 61 -41 0 -5 -20 -9 -44 -9
-25 0 -78 -4 -118 -9 -40 -5 -133 -12 -205 -15 -113 -5 -133 -4 -133 9 0 8 10
20 22 26 48 26 52 38 22 62 -32 25 -212 137 -220 137 -6 0 -10 -4 -73 -75 -25
-28 -73 -80 -108 -118 l-63 -67 -102 -10 c-153 -15 -130 0 -300 -206 -46 -56
-150 -182 -233 -280 -82 -97 -167 -198 -187 -223 -21 -25 -43 -46 -49 -46 -6
0 -22 29 -34 65 -25 72 -178 468 -199 515 -8 17 -24 59 -36 95 -21 60 -64 172
-95 245 -7 17 -25 64 -40 105 -15 41 -33 89 -40 105 -51 117 -85 214 -84 240
6 108 1 186 -16 240 -23 75 -86 202 -135 275 -53 79 -72 119 -65 138 6 16 21
163 46 447 11 132 19 164 56 243 17 34 37 59 56 68 31 16 39 16 122 -9 279
-83 324 -90 411 -60 100 33 160 96 179 186 4 18 11 37 15 42 4 6 10 21 13 35
4 14 41 70 82 125 42 55 103 136 137 180 33 44 71 103 84 132 13 28 28 54 32
57 5 3 35 -2 68 -10 136 -36 167 -38 208 -19 65 31 67 38 91 320 2 28 9 95 14
150 6 55 16 163 21 240 16 202 13 195 96 225 38 14 74 28 80 32 10 7 19 61 29
173 2 22 9 81 15 130 6 50 18 151 26 225 30 274 31 279 72 280 24 0 137 62
205 112 135 100 248 250 302 403 37 106 40 225 7 299 -59 131 -117 163 -397
222 -112 23 -172 41 -252 76 -43 18 -172 98 -228 140 -27 21 -70 52 -94 70
-24 18 -70 53 -102 78 -179 138 -303 226 -391 277 -212 122 -407 197 -588 224
-82 13 -362 24 -371 15z m976 -1431 c66 -16 187 -69 280 -124 28 -16 68 -39
90 -51 67 -37 259 -166 280 -189 16 -19 19 -34 17 -94 -2 -40 -8 -103 -13
-142 -6 -38 -14 -117 -19 -175 -6 -58 -12 -118 -14 -135 -2 -16 -7 -68 -11
-115 -10 -135 -11 -138 -61 -161 -49 -24 -97 -73 -118 -122 -21 -51 -48 -273
-67 -554 -6 -94 -15 -176 -19 -183 -5 -8 -27 -5 -81 13 -109 37 -142 41 -176
23 -42 -21 -61 -55 -78 -138 -9 -40 -19 -76 -24 -81 -9 -9 -24 -12 -101 -21
-77 -10 -109 -24 -126 -58 -14 -27 -14 -29 13 -39 93 -35 84 -101 -19 -153
-51 -26 -67 -54 -89 -155 -11 -47 -26 -92 -33 -100 -34 -34 -148 -15 -330 56
-268 104 -481 288 -592 513 -19 39 -37 70 -40 70 -3 0 -3 -3 -1 -7 3 -5 8 -53
11 -108 3 -55 11 -158 16 -230 6 -71 12 -161 15 -200 2 -38 9 -128 14 -200 33
-443 45 -701 33 -709 -4 -2 -20 5 -34 17 -15 12 -70 58 -124 102 -53 44 -118
98 -144 120 -56 48 -115 96 -230 190 -48 39 -106 87 -131 107 -60 51 -255 208
-289 233 -28 21 -136 110 -252 208 -63 54 -83 87 -59 102 5 3 13 20 17 37 3
18 10 39 15 48 8 14 59 125 109 235 12 28 39 86 60 130 21 44 61 130 90 190
28 61 68 144 88 185 l37 75 120 0 c175 0 263 18 384 78 112 55 231 183 231
246 0 15 -12 69 -25 121 -25 95 -34 222 -20 285 33 144 114 249 216 279 74 22
142 2 197 -58 51 -55 65 -100 66 -210 l1 -89 50 -17 c28 -9 70 -27 95 -39 42
-20 46 -20 57 -4 7 9 13 26 13 38 0 26 35 122 52 142 19 23 76 57 131 77 191
72 297 184 355 376 6 19 13 107 17 195 8 202 8 202 150 170z m2576 -2556 c16
-11 29 -17 29 -13 0 4 10 -2 23 -13 12 -11 29 -23 37 -27 8 -3 42 -21 75 -39
77 -43 175 -96 245 -134 30 -16 91 -50 135 -75 44 -25 121 -66 170 -93 50 -26
108 -58 130 -70 57 -32 146 -80 245 -133 47 -25 90 -48 95 -52 6 -5 46 -27 90
-50 44 -23 118 -64 165 -91 47 -26 105 -59 130 -72 25 -13 46 -30 48 -38 3
-14 -87 -137 -156 -214 -20 -23 -42 -50 -48 -61 -11 -18 -13 -18 -40 -3 -16 9
-56 31 -89 49 -78 43 -113 63 -210 118 -44 25 -152 86 -240 135 -88 49 -185
103 -215 120 -30 16 -68 37 -85 45 -16 8 -41 23 -55 32 -14 9 -47 30 -75 45
-27 15 -111 62 -185 103 -74 41 -160 89 -190 105 -30 16 -80 45 -111 63 -31
19 -59 34 -63 34 -9 0 -116 70 -116 76 0 3 20 31 45 62 120 153 170 212 178
212 5 0 22 -9 38 -21z m-872 -2510 c58 -12 72 -25 60 -57 -14 -37 -134 -84
-314 -122 -22 -5 -60 -13 -85 -19 -25 -5 -88 -17 -140 -26 -133 -22 -236 -45
-299 -65 l-53 -18 62 -52 c35 -28 74 -56 87 -61 13 -5 66 -9 118 -9 85 0 96
-2 122 -24 35 -30 53 -83 53 -160 l0 -56 -87 -1 c-49 -1 -126 -4 -173 -7 l-85
-7 3 -33 c3 -40 32 -100 61 -126 17 -15 41 -20 121 -24 l100 -5 -1 -66 c-1
-36 -4 -93 -8 -126 l-6 -60 -177 -5 -177 -5 -37 -35 c-20 -19 -95 -107 -167
-195 -201 -244 -237 -283 -308 -331 -37 -24 -70 -44 -74 -44 -5 0 -23 -11 -41
-25 -18 -14 -38 -25 -45 -25 -14 0 -92 69 -364 320 -292 270 -295 272 -295
282 0 5 22 35 49 66 28 31 81 93 119 137 86 100 232 266 249 283 7 7 109 129
225 269 279 336 274 331 316 343 21 6 82 15 137 20 99 9 138 12 330 24 122 8
451 34 560 45 44 5 88 9 97 10 9 0 39 -4 67 -10z"/>
<path d="M6776 5027 c-47 -51 -94 -105 -106 -120 l-21 -26 98 -57 c54 -31 109
-63 122 -72 24 -15 27 -13 138 101 62 64 113 120 113 124 0 12 -230 143 -250
143 -4 0 -46 -42 -94 -93z"/>
<path d="M7178 4770 c-57 -61 -104 -116 -106 -123 -2 -13 43 -44 143 -97 33
-18 64 -37 70 -41 11 -11 45 -12 45 -1 0 4 48 57 106 116 58 60 102 112 97
115 -62 46 -226 141 -243 141 -5 0 -55 -50 -112 -110z"/>
<path d="M6503 4723 c-97 -101 -207 -229 -205 -237 2 -6 7 -12 12 -14 5 -2 56
-32 115 -68 104 -63 125 -72 125 -56 0 5 50 62 110 127 88 93 108 120 99 131
-6 8 -15 14 -20 14 -5 0 -49 25 -98 55 -112 69 -116 70 -138 48z"/>
<path d="M7586 4518 l-108 -122 27 -22 c15 -12 48 -32 74 -45 25 -12 69 -37
98 -56 l51 -32 28 37 c16 20 68 79 118 131 l89 94 -34 17 c-19 10 -54 29 -79
44 -25 14 -52 29 -60 32 -8 4 -27 16 -42 26 -14 10 -32 18 -40 18 -7 0 -62
-55 -122 -122z"/>
<path d="M6846 4406 c-157 -171 -149 -159 -129 -174 10 -7 58 -35 106 -63 48
-27 96 -54 105 -60 15 -10 27 -2 78 52 182 192 174 181 152 202 -19 18 -96 67
-105 67 -5 0 -28 14 -53 30 -25 16 -52 30 -61 30 -9 0 -51 -38 -93 -84z"/>
<path d="M8059 4342 c-75 -80 -169 -192 -169 -201 0 -4 28 -22 63 -41 34 -18
84 -48 112 -67 27 -18 57 -33 65 -33 8 0 47 35 85 77 39 42 89 98 113 123 23
26 42 50 42 53 0 5 -115 77 -160 100 -8 4 -28 16 -45 26 -16 11 -35 20 -41 20
-6 1 -35 -25 -65 -57z"/>
<path d="M6035 4223 c-65 -68 -114 -128 -109 -132 14 -12 143 -91 149 -91 3 0
23 -11 45 -25 42 -27 70 -32 70 -14 0 10 71 90 169 187 41 41 42 44 25 58 -32
25 -86 59 -160 101 l-71 40 -118 -124z"/>
<path d="M7297 4207 c-21 -23 -72 -79 -114 -125 -84 -92 -84 -86 -4 -128 20
-10 67 -37 104 -61 37 -24 72 -43 77 -43 5 0 14 9 20 19 5 11 39 48 74 83 109
109 154 168 127 168 -6 0 -53 27 -106 60 -53 33 -106 62 -118 64 -16 3 -32 -7
-60 -37z"/>
<path d="M7730 3983 c-146 -158 -200 -220 -200 -229 0 -6 10 -16 23 -22 27
-14 99 -57 165 -99 l51 -32 25 20 c26 20 206 223 206 232 0 3 -48 33 -106 68
-58 34 -107 66 -110 71 -8 13 -38 8 -54 -9z"/>
<path d="M7368 3601 c-1 -5 -28 -36 -59 -68 -30 -32 -122 -132 -204 -223 -82
-91 -198 -217 -259 -280 -128 -134 -246 -271 -246 -285 0 -5 23 -23 52 -40 28
-16 66 -39 84 -50 18 -11 48 -30 67 -41 l34 -21 79 84 c43 47 102 109 129 139
28 29 88 95 135 146 47 50 126 135 175 188 50 52 134 142 188 199 53 57 97
107 97 111 0 8 -92 70 -103 70 -4 0 -36 18 -72 40 -66 40 -90 48 -97 31z"/>
</g>
</svg>
