<?xml version="1.0" standalone="no"?>
<!DOCTYPE svg PUBLIC "-//W3C//DTD SVG 20010904//EN"
 "http://www.w3.org/TR/2001/REC-SVG-20010904/DTD/svg10.dtd">
<svg version="1.0" xmlns="http://www.w3.org/2000/svg"
 width="500.000000pt" height="500.000000pt" viewBox="0 0 500.000000 500.000000"
 preserveAspectRatio="xMidYMid meet">

<g transform="translate(0.000000,500.000000) scale(0.100000,-0.100000)"
fill="#d80032" stroke="none">
<path d="M2315 4994 c-16 -2 -73 -9 -125 -15 -434 -49 -895 -244 -1255 -529
-103 -81 -304 -282 -385 -385 -284 -359 -467 -789 -531 -1255 -18 -124 -18
-496 0 -620 64 -466 247 -896 531 -1255 81 -103 282 -304 385 -385 298 -237
684 -419 1040 -493 202 -42 299 -52 525 -52 226 0 323 10 525 52 356 74 742
256 1040 493 103 81 304 282 385 385 228 287 408 659 484 998 50 219 60 315
60 567 0 252 -10 348 -60 567 -76 339 -256 711 -484 998 -81 103 -282 304
-385 385 -351 278 -770 459 -1220 526 -95 14 -467 27 -530 18z m525 -1584 l0
-530 575 0 575 0 -2 -337 -3 -338 -572 -3 -573 -2 0 -575 0 -575 -335 0 -335
0 0 575 0 575 -572 2 -573 3 -3 338 -2 337 575 0 575 0 0 530 0 530 335 0 335
0 0 -530z"/>
</g>
</svg>
